<mxfile host="app.diagrams.net" agent="Mozilla/5.0 (Windows NT 10.0; Win64; x64) AppleWebKit/537.36 (KHTML, like Gecko) Chrome/136.0.0.0 Safari/537.36" version="27.0.5">
  <diagram name="Page-1" id="DIBcZ52hSFuPhpnZTQoB">
    <mxGraphModel dx="1042" dy="580" grid="1" gridSize="10" guides="1" tooltips="1" connect="1" arrows="1" fold="1" page="1" pageScale="1" pageWidth="850" pageHeight="1100" background="light-dark(#FFFFFF,#FFFFFF)" math="0" shadow="0">
      <root>
        <mxCell id="0" />
        <mxCell id="1" parent="0" />
        <mxCell id="_ydNGUtrwnxu__iHTs8E-2" value="User" style="swimlane;fontStyle=0;childLayout=stackLayout;horizontal=1;startSize=30;horizontalStack=0;resizeParent=1;resizeParentMax=0;resizeLast=0;collapsible=1;marginBottom=0;whiteSpace=wrap;html=1;strokeColor=light-dark(#000000,#000000);fillColor=light-dark(#FFFFFF,#FFFFFF);fontColor=light-dark(#000000,#000000);" parent="1" vertex="1">
          <mxGeometry x="220" y="260" width="140" height="90" as="geometry" />
        </mxCell>
        <mxCell id="_ydNGUtrwnxu__iHTs8E-4" value="Item 2" style="text;strokeColor=light-dark(#000000,#000000);fillColor=light-dark(#FFFFFF,#FFFFFF);align=left;verticalAlign=middle;spacingLeft=4;spacingRight=4;overflow=hidden;points=[[0,0.5],[1,0.5]];portConstraint=eastwest;rotatable=0;whiteSpace=wrap;html=1;fontColor=light-dark(#000000,#000000);" parent="_ydNGUtrwnxu__iHTs8E-2" vertex="1">
          <mxGeometry y="30" width="140" height="30" as="geometry" />
        </mxCell>
        <mxCell id="_ydNGUtrwnxu__iHTs8E-8" value="Item 2" style="text;strokeColor=light-dark(#000000,#000000);fillColor=light-dark(#FFFFFF,#FFFFFF);align=left;verticalAlign=middle;spacingLeft=4;spacingRight=4;overflow=hidden;points=[[0,0.5],[1,0.5]];portConstraint=eastwest;rotatable=0;whiteSpace=wrap;html=1;fontColor=light-dark(#000000,#000000);" parent="_ydNGUtrwnxu__iHTs8E-2" vertex="1">
          <mxGeometry y="60" width="140" height="30" as="geometry" />
        </mxCell>
        <mxCell id="_ydNGUtrwnxu__iHTs8E-9" value="Cart" style="swimlane;fontStyle=0;childLayout=stackLayout;horizontal=1;startSize=30;horizontalStack=0;resizeParent=1;resizeParentMax=0;resizeLast=0;collapsible=1;marginBottom=0;whiteSpace=wrap;html=1;strokeColor=light-dark(#000000,#000000);fillColor=light-dark(#FFFFFF,#FFFFFF);fontColor=light-dark(#000000,#000000);" parent="1" vertex="1">
          <mxGeometry x="220" y="70" width="140" height="90" as="geometry" />
        </mxCell>
        <mxCell id="_ydNGUtrwnxu__iHTs8E-10" value="Item 2" style="text;strokeColor=light-dark(#000000,#000000);fillColor=light-dark(#FFFFFF,#FFFFFF);align=left;verticalAlign=middle;spacingLeft=4;spacingRight=4;overflow=hidden;points=[[0,0.5],[1,0.5]];portConstraint=eastwest;rotatable=0;whiteSpace=wrap;html=1;fontColor=light-dark(#000000,#000000);" parent="_ydNGUtrwnxu__iHTs8E-9" vertex="1">
          <mxGeometry y="30" width="140" height="30" as="geometry" />
        </mxCell>
        <mxCell id="_ydNGUtrwnxu__iHTs8E-11" value="Item 2" style="text;strokeColor=light-dark(#000000,#000000);fillColor=light-dark(#FFFFFF,#FFFFFF);align=left;verticalAlign=middle;spacingLeft=4;spacingRight=4;overflow=hidden;points=[[0,0.5],[1,0.5]];portConstraint=eastwest;rotatable=0;whiteSpace=wrap;html=1;fontColor=light-dark(#000000,#000000);" parent="_ydNGUtrwnxu__iHTs8E-9" vertex="1">
          <mxGeometry y="60" width="140" height="30" as="geometry" />
        </mxCell>
        <mxCell id="rbe2yqdiVSbnE7vsVnZQ-1" value="My Codes&lt;span style=&quot;color: rgba(0, 0, 0, 0); font-family: monospace; font-size: 0px; text-align: start; text-wrap-mode: nowrap;&quot;&gt;%3CmxGraphModel%3E%3Croot%3E%3CmxCell%20id%3D%220%22%2F%3E%3CmxCell%20id%3D%221%22%20parent%3D%220%22%2F%3E%3CmxCell%20id%3D%222%22%20value%3D%22List%22%20style%3D%22swimlane%3BfontStyle%3D0%3BchildLayout%3DstackLayout%3Bhorizontal%3D1%3BstartSize%3D30%3BhorizontalStack%3D0%3BresizeParent%3D1%3BresizeParentMax%3D0%3BresizeLast%3D0%3Bcollapsible%3D1%3BmarginBottom%3D0%3BwhiteSpace%3Dwrap%3Bhtml%3D1%3BstrokeColor%3Dlight-dark(%23000000%2C%23000000)%3BfillColor%3Dlight-dark(%23FFFFFF%2C%23FFFFFF)%3BfontColor%3Dlight-dark(%23000000%2C%23000000)%3B%22%20vertex%3D%221%22%20parent%3D%221%22%3E%3CmxGeometry%20x%3D%22190%22%20y%3D%22260%22%20width%3D%22140%22%20height%3D%2290%22%20as%3D%22geometry%22%2F%3E%3C%2FmxCell%3E%3CmxCell%20id%3D%223%22%20value%3D%22Item%202%22%20style%3D%22text%3BstrokeColor%3Dlight-dark(%23000000%2C%23000000)%3BfillColor%3Dlight-dark(%23FFFFFF%2C%23FFFFFF)%3Balign%3Dleft%3BverticalAlign%3Dmiddle%3BspacingLeft%3D4%3BspacingRight%3D4%3Boverflow%3Dhidden%3Bpoints%3D%5B%5B0%2C0.5%5D%2C%5B1%2C0.5%5D%5D%3BportConstraint%3Deastwest%3Brotatable%3D0%3BwhiteSpace%3Dwrap%3Bhtml%3D1%3BfontColor%3Dlight-dark(%23000000%2C%23000000)%3B%22%20vertex%3D%221%22%20parent%3D%222%22%3E%3CmxGeometry%20y%3D%2230%22%20width%3D%22140%22%20height%3D%2230%22%20as%3D%22geometry%22%2F%3E%3C%2FmxCell%3E%3CmxCell%20id%3D%224%22%20value%3D%22Item%202%22%20style%3D%22text%3BstrokeColor%3Dlight-dark(%23000000%2C%23000000)%3BfillColor%3Dlight-dark(%23FFFFFF%2C%23FFFFFF)%3Balign%3Dleft%3BverticalAlign%3Dmiddle%3BspacingLeft%3D4%3BspacingRight%3D4%3Boverflow%3Dhidden%3Bpoints%3D%5B%5B0%2C0.5%5D%2C%5B1%2C0.5%5D%5D%3BportConstraint%3Deastwest%3Brotatable%3D0%3BwhiteSpace%3Dwrap%3Bhtml%3D1%3BfontColor%3Dlight-dark(%23000000%2C%23000000)%3B%22%20vertex%3D%221%22%20parent%3D%222%22%3E%3CmxGeometry%20y%3D%2260%22%20width%3D%22140%22%20height%3D%2230%22%20as%3D%22geometry%22%2F%3E%3C%2FmxCell%3E%3C%2Froot%3E%3C%2FmxGraphModel%3E&lt;/span&gt;" style="swimlane;fontStyle=0;childLayout=stackLayout;horizontal=1;startSize=30;horizontalStack=0;resizeParent=1;resizeParentMax=0;resizeLast=0;collapsible=1;marginBottom=0;whiteSpace=wrap;html=1;strokeColor=light-dark(#000000,#000000);fillColor=light-dark(#FFFFFF,#FFFFFF);fontColor=light-dark(#000000,#000000);" vertex="1" parent="1">
          <mxGeometry x="20" y="70" width="140" height="90" as="geometry" />
        </mxCell>
        <mxCell id="rbe2yqdiVSbnE7vsVnZQ-2" value="Item 2" style="text;strokeColor=light-dark(#000000,#000000);fillColor=light-dark(#FFFFFF,#FFFFFF);align=left;verticalAlign=middle;spacingLeft=4;spacingRight=4;overflow=hidden;points=[[0,0.5],[1,0.5]];portConstraint=eastwest;rotatable=0;whiteSpace=wrap;html=1;fontColor=light-dark(#000000,#000000);" vertex="1" parent="rbe2yqdiVSbnE7vsVnZQ-1">
          <mxGeometry y="30" width="140" height="30" as="geometry" />
        </mxCell>
        <mxCell id="rbe2yqdiVSbnE7vsVnZQ-3" value="Item 2" style="text;strokeColor=light-dark(#000000,#000000);fillColor=light-dark(#FFFFFF,#FFFFFF);align=left;verticalAlign=middle;spacingLeft=4;spacingRight=4;overflow=hidden;points=[[0,0.5],[1,0.5]];portConstraint=eastwest;rotatable=0;whiteSpace=wrap;html=1;fontColor=light-dark(#000000,#000000);" vertex="1" parent="rbe2yqdiVSbnE7vsVnZQ-1">
          <mxGeometry y="60" width="140" height="30" as="geometry" />
        </mxCell>
        <mxCell id="rbe2yqdiVSbnE7vsVnZQ-4" value="Favourites" style="swimlane;fontStyle=0;childLayout=stackLayout;horizontal=1;startSize=30;horizontalStack=0;resizeParent=1;resizeParentMax=0;resizeLast=0;collapsible=1;marginBottom=0;whiteSpace=wrap;html=1;strokeColor=light-dark(#000000,#000000);fillColor=light-dark(#FFFFFF,#FFFFFF);fontColor=light-dark(#000000,#000000);" vertex="1" parent="1">
          <mxGeometry x="20" y="260" width="140" height="90" as="geometry" />
        </mxCell>
        <mxCell id="rbe2yqdiVSbnE7vsVnZQ-5" value="Item 2" style="text;strokeColor=light-dark(#000000,#000000);fillColor=light-dark(#FFFFFF,#FFFFFF);align=left;verticalAlign=middle;spacingLeft=4;spacingRight=4;overflow=hidden;points=[[0,0.5],[1,0.5]];portConstraint=eastwest;rotatable=0;whiteSpace=wrap;html=1;fontColor=light-dark(#000000,#000000);" vertex="1" parent="rbe2yqdiVSbnE7vsVnZQ-4">
          <mxGeometry y="30" width="140" height="30" as="geometry" />
        </mxCell>
        <mxCell id="rbe2yqdiVSbnE7vsVnZQ-6" value="Item 2" style="text;strokeColor=light-dark(#000000,#000000);fillColor=light-dark(#FFFFFF,#FFFFFF);align=left;verticalAlign=middle;spacingLeft=4;spacingRight=4;overflow=hidden;points=[[0,0.5],[1,0.5]];portConstraint=eastwest;rotatable=0;whiteSpace=wrap;html=1;fontColor=light-dark(#000000,#000000);" vertex="1" parent="rbe2yqdiVSbnE7vsVnZQ-4">
          <mxGeometry y="60" width="140" height="30" as="geometry" />
        </mxCell>
        <mxCell id="rbe2yqdiVSbnE7vsVnZQ-7" value="My Gyms" style="swimlane;fontStyle=0;childLayout=stackLayout;horizontal=1;startSize=30;horizontalStack=0;resizeParent=1;resizeParentMax=0;resizeLast=0;collapsible=1;marginBottom=0;whiteSpace=wrap;html=1;strokeColor=light-dark(#000000,#000000);fillColor=light-dark(#FFFFFF,#FFFFFF);fontColor=light-dark(#000000,#000000);" vertex="1" parent="1">
          <mxGeometry x="20" y="440" width="140" height="90" as="geometry" />
        </mxCell>
        <mxCell id="rbe2yqdiVSbnE7vsVnZQ-8" value="Item 2" style="text;strokeColor=light-dark(#000000,#000000);fillColor=light-dark(#FFFFFF,#FFFFFF);align=left;verticalAlign=middle;spacingLeft=4;spacingRight=4;overflow=hidden;points=[[0,0.5],[1,0.5]];portConstraint=eastwest;rotatable=0;whiteSpace=wrap;html=1;fontColor=light-dark(#000000,#000000);" vertex="1" parent="rbe2yqdiVSbnE7vsVnZQ-7">
          <mxGeometry y="30" width="140" height="30" as="geometry" />
        </mxCell>
        <mxCell id="rbe2yqdiVSbnE7vsVnZQ-9" value="Item 2" style="text;strokeColor=light-dark(#000000,#000000);fillColor=light-dark(#FFFFFF,#FFFFFF);align=left;verticalAlign=middle;spacingLeft=4;spacingRight=4;overflow=hidden;points=[[0,0.5],[1,0.5]];portConstraint=eastwest;rotatable=0;whiteSpace=wrap;html=1;fontColor=light-dark(#000000,#000000);" vertex="1" parent="rbe2yqdiVSbnE7vsVnZQ-7">
          <mxGeometry y="60" width="140" height="30" as="geometry" />
        </mxCell>
        <mxCell id="rbe2yqdiVSbnE7vsVnZQ-10" value="Find Gyms" style="swimlane;fontStyle=0;childLayout=stackLayout;horizontal=1;startSize=30;horizontalStack=0;resizeParent=1;resizeParentMax=0;resizeLast=0;collapsible=1;marginBottom=0;whiteSpace=wrap;html=1;strokeColor=light-dark(#000000,#000000);fillColor=light-dark(#FFFFFF,#FFFFFF);fontColor=light-dark(#000000,#000000);" vertex="1" parent="1">
          <mxGeometry x="450" y="440" width="140" height="90" as="geometry" />
        </mxCell>
        <mxCell id="rbe2yqdiVSbnE7vsVnZQ-11" value="Item 2" style="text;strokeColor=light-dark(#000000,#000000);fillColor=light-dark(#FFFFFF,#FFFFFF);align=left;verticalAlign=middle;spacingLeft=4;spacingRight=4;overflow=hidden;points=[[0,0.5],[1,0.5]];portConstraint=eastwest;rotatable=0;whiteSpace=wrap;html=1;fontColor=light-dark(#000000,#000000);" vertex="1" parent="rbe2yqdiVSbnE7vsVnZQ-10">
          <mxGeometry y="30" width="140" height="30" as="geometry" />
        </mxCell>
        <mxCell id="rbe2yqdiVSbnE7vsVnZQ-12" value="Item 2" style="text;strokeColor=light-dark(#000000,#000000);fillColor=light-dark(#FFFFFF,#FFFFFF);align=left;verticalAlign=middle;spacingLeft=4;spacingRight=4;overflow=hidden;points=[[0,0.5],[1,0.5]];portConstraint=eastwest;rotatable=0;whiteSpace=wrap;html=1;fontColor=light-dark(#000000,#000000);" vertex="1" parent="rbe2yqdiVSbnE7vsVnZQ-10">
          <mxGeometry y="60" width="140" height="30" as="geometry" />
        </mxCell>
        <mxCell id="rbe2yqdiVSbnE7vsVnZQ-13" value="Announcements" style="swimlane;fontStyle=0;childLayout=stackLayout;horizontal=1;startSize=30;horizontalStack=0;resizeParent=1;resizeParentMax=0;resizeLast=0;collapsible=1;marginBottom=0;whiteSpace=wrap;html=1;strokeColor=light-dark(#000000,#000000);fillColor=light-dark(#FFFFFF,#FFFFFF);fontColor=light-dark(#000000,#000000);" vertex="1" parent="1">
          <mxGeometry x="450" y="260" width="140" height="90" as="geometry" />
        </mxCell>
        <mxCell id="rbe2yqdiVSbnE7vsVnZQ-14" value="Item 2" style="text;strokeColor=light-dark(#000000,#000000);fillColor=light-dark(#FFFFFF,#FFFFFF);align=left;verticalAlign=middle;spacingLeft=4;spacingRight=4;overflow=hidden;points=[[0,0.5],[1,0.5]];portConstraint=eastwest;rotatable=0;whiteSpace=wrap;html=1;fontColor=light-dark(#000000,#000000);" vertex="1" parent="rbe2yqdiVSbnE7vsVnZQ-13">
          <mxGeometry y="30" width="140" height="30" as="geometry" />
        </mxCell>
        <mxCell id="rbe2yqdiVSbnE7vsVnZQ-15" value="Item 2" style="text;strokeColor=light-dark(#000000,#000000);fillColor=light-dark(#FFFFFF,#FFFFFF);align=left;verticalAlign=middle;spacingLeft=4;spacingRight=4;overflow=hidden;points=[[0,0.5],[1,0.5]];portConstraint=eastwest;rotatable=0;whiteSpace=wrap;html=1;fontColor=light-dark(#000000,#000000);" vertex="1" parent="rbe2yqdiVSbnE7vsVnZQ-13">
          <mxGeometry y="60" width="140" height="30" as="geometry" />
        </mxCell>
        <mxCell id="rbe2yqdiVSbnE7vsVnZQ-16" value="Company User" style="swimlane;fontStyle=0;childLayout=stackLayout;horizontal=1;startSize=30;horizontalStack=0;resizeParent=1;resizeParentMax=0;resizeLast=0;collapsible=1;marginBottom=0;whiteSpace=wrap;html=1;strokeColor=light-dark(#000000,#000000);fillColor=light-dark(#FFFFFF,#FFFFFF);fontColor=light-dark(#000000,#000000);" vertex="1" parent="1">
          <mxGeometry x="670" y="260" width="140" height="90" as="geometry" />
        </mxCell>
        <mxCell id="rbe2yqdiVSbnE7vsVnZQ-17" value="Item 2" style="text;strokeColor=light-dark(#000000,#000000);fillColor=light-dark(#FFFFFF,#FFFFFF);align=left;verticalAlign=middle;spacingLeft=4;spacingRight=4;overflow=hidden;points=[[0,0.5],[1,0.5]];portConstraint=eastwest;rotatable=0;whiteSpace=wrap;html=1;fontColor=light-dark(#000000,#000000);" vertex="1" parent="rbe2yqdiVSbnE7vsVnZQ-16">
          <mxGeometry y="30" width="140" height="30" as="geometry" />
        </mxCell>
        <mxCell id="rbe2yqdiVSbnE7vsVnZQ-18" value="Item 2" style="text;strokeColor=light-dark(#000000,#000000);fillColor=light-dark(#FFFFFF,#FFFFFF);align=left;verticalAlign=middle;spacingLeft=4;spacingRight=4;overflow=hidden;points=[[0,0.5],[1,0.5]];portConstraint=eastwest;rotatable=0;whiteSpace=wrap;html=1;fontColor=light-dark(#000000,#000000);" vertex="1" parent="rbe2yqdiVSbnE7vsVnZQ-16">
          <mxGeometry y="60" width="140" height="30" as="geometry" />
        </mxCell>
        <mxCell id="rbe2yqdiVSbnE7vsVnZQ-19" value="Subscription History" style="swimlane;fontStyle=0;childLayout=stackLayout;horizontal=1;startSize=30;horizontalStack=0;resizeParent=1;resizeParentMax=0;resizeLast=0;collapsible=1;marginBottom=0;whiteSpace=wrap;html=1;strokeColor=light-dark(#000000,#000000);fillColor=light-dark(#FFFFFF,#FFFFFF);fontColor=light-dark(#000000,#000000);" vertex="1" parent="1">
          <mxGeometry x="450" y="70" width="140" height="90" as="geometry" />
        </mxCell>
        <mxCell id="rbe2yqdiVSbnE7vsVnZQ-20" value="Item 2" style="text;strokeColor=light-dark(#000000,#000000);fillColor=light-dark(#FFFFFF,#FFFFFF);align=left;verticalAlign=middle;spacingLeft=4;spacingRight=4;overflow=hidden;points=[[0,0.5],[1,0.5]];portConstraint=eastwest;rotatable=0;whiteSpace=wrap;html=1;fontColor=light-dark(#000000,#000000);" vertex="1" parent="rbe2yqdiVSbnE7vsVnZQ-19">
          <mxGeometry y="30" width="140" height="30" as="geometry" />
        </mxCell>
        <mxCell id="rbe2yqdiVSbnE7vsVnZQ-21" value="Item 2" style="text;strokeColor=light-dark(#000000,#000000);fillColor=light-dark(#FFFFFF,#FFFFFF);align=left;verticalAlign=middle;spacingLeft=4;spacingRight=4;overflow=hidden;points=[[0,0.5],[1,0.5]];portConstraint=eastwest;rotatable=0;whiteSpace=wrap;html=1;fontColor=light-dark(#000000,#000000);" vertex="1" parent="rbe2yqdiVSbnE7vsVnZQ-19">
          <mxGeometry y="60" width="140" height="30" as="geometry" />
        </mxCell>
        <mxCell id="rbe2yqdiVSbnE7vsVnZQ-22" value="Services" style="swimlane;fontStyle=0;childLayout=stackLayout;horizontal=1;startSize=30;horizontalStack=0;resizeParent=1;resizeParentMax=0;resizeLast=0;collapsible=1;marginBottom=0;whiteSpace=wrap;html=1;strokeColor=light-dark(#000000,#000000);fillColor=light-dark(#FFFFFF,#FFFFFF);fontColor=light-dark(#000000,#000000);" vertex="1" parent="1">
          <mxGeometry x="670" y="70" width="140" height="90" as="geometry" />
        </mxCell>
        <mxCell id="rbe2yqdiVSbnE7vsVnZQ-23" value="Item 2" style="text;strokeColor=light-dark(#000000,#000000);fillColor=light-dark(#FFFFFF,#FFFFFF);align=left;verticalAlign=middle;spacingLeft=4;spacingRight=4;overflow=hidden;points=[[0,0.5],[1,0.5]];portConstraint=eastwest;rotatable=0;whiteSpace=wrap;html=1;fontColor=light-dark(#000000,#000000);" vertex="1" parent="rbe2yqdiVSbnE7vsVnZQ-22">
          <mxGeometry y="30" width="140" height="30" as="geometry" />
        </mxCell>
        <mxCell id="rbe2yqdiVSbnE7vsVnZQ-24" value="Item 2" style="text;strokeColor=light-dark(#000000,#000000);fillColor=light-dark(#FFFFFF,#FFFFFF);align=left;verticalAlign=middle;spacingLeft=4;spacingRight=4;overflow=hidden;points=[[0,0.5],[1,0.5]];portConstraint=eastwest;rotatable=0;whiteSpace=wrap;html=1;fontColor=light-dark(#000000,#000000);" vertex="1" parent="rbe2yqdiVSbnE7vsVnZQ-22">
          <mxGeometry y="60" width="140" height="30" as="geometry" />
        </mxCell>
        <mxCell id="rbe2yqdiVSbnE7vsVnZQ-25" value="" style="endArrow=classic;html=1;rounded=0;strokeColor=light-dark(#000000,#000000);exitX=0.75;exitY=1;exitDx=0;exitDy=0;entryX=0.25;entryY=1;entryDx=0;entryDy=0;" edge="1" parent="1" source="_ydNGUtrwnxu__iHTs8E-2" target="rbe2yqdiVSbnE7vsVnZQ-13">
          <mxGeometry width="50" height="50" relative="1" as="geometry">
            <mxPoint x="320" y="420" as="sourcePoint" />
            <mxPoint x="410" y="380" as="targetPoint" />
            <Array as="points">
              <mxPoint x="325" y="380" />
              <mxPoint x="390" y="380" />
              <mxPoint x="485" y="380" />
            </Array>
          </mxGeometry>
        </mxCell>
        <mxCell id="rbe2yqdiVSbnE7vsVnZQ-28" value="" style="endArrow=classic;html=1;rounded=0;strokeColor=light-dark(#000000,#000000);exitX=0;exitY=0.5;exitDx=0;exitDy=0;entryX=1;entryY=0.5;entryDx=0;entryDy=0;" edge="1" parent="1" source="rbe2yqdiVSbnE7vsVnZQ-18" target="rbe2yqdiVSbnE7vsVnZQ-15">
          <mxGeometry width="50" height="50" relative="1" as="geometry">
            <mxPoint x="580" y="360" as="sourcePoint" />
            <mxPoint x="590" y="328" as="targetPoint" />
          </mxGeometry>
        </mxCell>
        <mxCell id="rbe2yqdiVSbnE7vsVnZQ-29" value="" style="endArrow=classic;html=1;rounded=0;strokeColor=light-dark(#000000,#000000);entryX=0.5;entryY=1;entryDx=0;entryDy=0;exitX=1;exitY=0.5;exitDx=0;exitDy=0;" edge="1" parent="1" source="rbe2yqdiVSbnE7vsVnZQ-16" target="rbe2yqdiVSbnE7vsVnZQ-22">
          <mxGeometry width="50" height="50" relative="1" as="geometry">
            <mxPoint x="790" y="310" as="sourcePoint" />
            <mxPoint x="560" y="315" as="targetPoint" />
            <Array as="points">
              <mxPoint x="840" y="305" />
              <mxPoint x="840" y="210" />
              <mxPoint x="740" y="210" />
            </Array>
          </mxGeometry>
        </mxCell>
        <mxCell id="rbe2yqdiVSbnE7vsVnZQ-31" value="" style="endArrow=classic;html=1;rounded=0;strokeColor=light-dark(#000000,#000000);entryX=1;entryY=0.5;entryDx=0;entryDy=0;exitX=0.5;exitY=1;exitDx=0;exitDy=0;" edge="1" parent="1" source="rbe2yqdiVSbnE7vsVnZQ-16" target="rbe2yqdiVSbnE7vsVnZQ-10">
          <mxGeometry width="50" height="50" relative="1" as="geometry">
            <mxPoint x="640" y="325" as="sourcePoint" />
            <mxPoint x="570" y="325" as="targetPoint" />
          </mxGeometry>
        </mxCell>
        <mxCell id="rbe2yqdiVSbnE7vsVnZQ-32" value="" style="endArrow=classic;html=1;rounded=0;strokeColor=light-dark(#000000,#000000);entryX=0;entryY=0.5;entryDx=0;entryDy=0;exitX=0.5;exitY=1;exitDx=0;exitDy=0;" edge="1" parent="1" source="_ydNGUtrwnxu__iHTs8E-2" target="rbe2yqdiVSbnE7vsVnZQ-11">
          <mxGeometry width="50" height="50" relative="1" as="geometry">
            <mxPoint x="300" y="410" as="sourcePoint" />
            <mxPoint x="580" y="335" as="targetPoint" />
            <Array as="points">
              <mxPoint x="290" y="485" />
            </Array>
          </mxGeometry>
        </mxCell>
        <mxCell id="rbe2yqdiVSbnE7vsVnZQ-33" value="" style="endArrow=classic;html=1;rounded=0;strokeColor=light-dark(#000000,#000000);entryX=1;entryY=0.75;entryDx=0;entryDy=0;exitX=0;exitY=0.75;exitDx=0;exitDy=0;" edge="1" parent="1" source="_ydNGUtrwnxu__iHTs8E-2" target="rbe2yqdiVSbnE7vsVnZQ-4">
          <mxGeometry width="50" height="50" relative="1" as="geometry">
            <mxPoint x="310" y="430" as="sourcePoint" />
            <mxPoint x="240" y="430" as="targetPoint" />
          </mxGeometry>
        </mxCell>
        <mxCell id="rbe2yqdiVSbnE7vsVnZQ-34" value="" style="endArrow=classic;html=1;rounded=0;strokeColor=light-dark(#000000,#000000);exitX=0;exitY=0.5;exitDx=0;exitDy=0;entryX=0.75;entryY=1;entryDx=0;entryDy=0;" edge="1" parent="1" source="_ydNGUtrwnxu__iHTs8E-2" target="rbe2yqdiVSbnE7vsVnZQ-1">
          <mxGeometry width="50" height="50" relative="1" as="geometry">
            <mxPoint x="210" y="230" as="sourcePoint" />
            <mxPoint x="140" y="190" as="targetPoint" />
          </mxGeometry>
        </mxCell>
        <mxCell id="rbe2yqdiVSbnE7vsVnZQ-35" value="" style="endArrow=classic;html=1;rounded=0;strokeColor=light-dark(#000000,#000000);entryX=0.75;entryY=1;entryDx=0;entryDy=0;exitX=1;exitY=0.5;exitDx=0;exitDy=0;" edge="1" parent="1" source="_ydNGUtrwnxu__iHTs8E-2" target="_ydNGUtrwnxu__iHTs8E-9">
          <mxGeometry width="50" height="50" relative="1" as="geometry">
            <mxPoint x="680" y="365" as="sourcePoint" />
            <mxPoint x="610" y="365" as="targetPoint" />
            <Array as="points">
              <mxPoint x="380" y="305" />
              <mxPoint x="380" y="230" />
            </Array>
          </mxGeometry>
        </mxCell>
        <mxCell id="rbe2yqdiVSbnE7vsVnZQ-36" value="" style="endArrow=classic;html=1;rounded=0;strokeColor=light-dark(#000000,#000000);entryX=1;entryY=0.5;entryDx=0;entryDy=0;exitX=0.25;exitY=1;exitDx=0;exitDy=0;" edge="1" parent="1" source="_ydNGUtrwnxu__iHTs8E-2" target="rbe2yqdiVSbnE7vsVnZQ-7">
          <mxGeometry width="50" height="50" relative="1" as="geometry">
            <mxPoint x="690" y="375" as="sourcePoint" />
            <mxPoint x="620" y="375" as="targetPoint" />
            <Array as="points">
              <mxPoint x="255" y="485" />
            </Array>
          </mxGeometry>
        </mxCell>
        <mxCell id="rbe2yqdiVSbnE7vsVnZQ-37" value="" style="endArrow=classic;html=1;rounded=0;strokeColor=light-dark(#000000,#000000);exitX=1;exitY=0.5;exitDx=0;exitDy=0;entryX=0.25;entryY=1;entryDx=0;entryDy=0;" edge="1" parent="1" source="_ydNGUtrwnxu__iHTs8E-8" target="rbe2yqdiVSbnE7vsVnZQ-19">
          <mxGeometry width="50" height="50" relative="1" as="geometry">
            <mxPoint x="700" y="385" as="sourcePoint" />
            <mxPoint x="445" y="160" as="targetPoint" />
            <Array as="points">
              <mxPoint x="410" y="335" />
              <mxPoint x="410" y="230" />
            </Array>
          </mxGeometry>
        </mxCell>
        <mxCell id="rbe2yqdiVSbnE7vsVnZQ-39" value="" style="endArrow=classic;html=1;rounded=0;strokeColor=light-dark(#000000,#000000);exitX=0;exitY=0.5;exitDx=0;exitDy=0;entryX=0.75;entryY=1;entryDx=0;entryDy=0;" edge="1" parent="1" source="rbe2yqdiVSbnE7vsVnZQ-17" target="rbe2yqdiVSbnE7vsVnZQ-19">
          <mxGeometry width="50" height="50" relative="1" as="geometry">
            <mxPoint x="720" y="405" as="sourcePoint" />
            <mxPoint x="580" y="180" as="targetPoint" />
          </mxGeometry>
        </mxCell>
        <mxCell id="rbe2yqdiVSbnE7vsVnZQ-40" style="edgeStyle=orthogonalEdgeStyle;rounded=0;orthogonalLoop=1;jettySize=auto;html=1;exitX=0.5;exitY=0;exitDx=0;exitDy=0;" edge="1" parent="1" source="rbe2yqdiVSbnE7vsVnZQ-10" target="rbe2yqdiVSbnE7vsVnZQ-10">
          <mxGeometry relative="1" as="geometry" />
        </mxCell>
      </root>
    </mxGraphModel>
  </diagram>
</mxfile>
